<?xml version="1.0" encoding="UTF-8" standalone="no"?>
<svg width="7px" height="7px" viewBox="0 0 7 7" version="1.1" xmlns="http://www.w3.org/2000/svg" xmlns:xlink="http://www.w3.org/1999/xlink">
    <!-- Generator: Sketch 47.1 (45422) - http://www.bohemiancoding.com/sketch -->
    <title>Combined Shape</title>
    <desc>Created with Sketch.</desc>
    <defs></defs>
    <g id="Pages" stroke="none" stroke-width="1" fill="none" fill-rule="evenodd">
        <g id="1920---Главная" transform="translate(-605.000000, -326.000000)" fill="#1A1A1A">
            <g id="first-display">
                <g id="Фильтр" transform="translate(446.000000, 278.000000)">
                    <g id="материал" transform="translate(16.000000, 16.000000)">
                        <g id="chip" transform="translate(81.000000, 23.000000)">
                            <path d="M66,12 L66,8.5 C66,8.22385763 65.7761424,8 65.5,8 C65.2238576,8 65,8.22385763 65,8.5 L65,8.5 L65,12 L61.5,12 C61.2238576,12 61,12.2238576 61,12.5 C61,12.7761424 61.2238576,13 61.5,13 L65,13 L65,16.5 C65,16.7761424 65.2238576,17 65.5,17 C65.7761424,17 66,16.7761424 66,16.5 L66,13 L69.5,13 C69.7761424,13 70,12.7761424 70,12.5 C70,12.2238576 69.7761424,12 69.5,12 L66,12 Z" id="Combined-Shape" transform="translate(65.500000, 12.500000) rotate(45.000000) translate(-65.500000, -12.500000) "></path>
                        </g>
                    </g>
                </g>
            </g>
        </g>
    </g>
</svg>