<?xml version="1.0" encoding="UTF-8" standalone="no"?>
<svg width="48px" height="10px" viewBox="0 0 48 10" version="1.1" xmlns="http://www.w3.org/2000/svg" xmlns:xlink="http://www.w3.org/1999/xlink">
    <!-- Generator: Sketch 47.1 (45422) - http://www.bohemiancoding.com/sketch -->
    <title>wave</title>
    <desc>Created with Sketch.</desc>
    <defs></defs>
    <g id="Pages" stroke="none" stroke-width="1" fill="none" fill-rule="evenodd">
        <g id="1920---Главная" transform="translate(-1236.000000, -508.000000)" stroke-width="4" stroke="#1961C5">
            <g id="first-display">
                <g id="Декор" transform="translate(629.000000, 113.000000)">
                    <g id="wave" transform="translate(607.000000, 395.000000)">
                        <path d="M0,8 C4.418278,8 8,4.418278 8,0" id="Oval"></path>
                        <path d="M40,8 C44.418278,8 48,4.418278 48,0" id="Oval-Copy-4" transform="translate(44.000000, 4.000000) scale(-1, 1) translate(-44.000000, -4.000000) "></path>
                        <path d="M8,0 C8,4.418278 11.581722,8 16,8 L16,8 C20.418278,8 24,4.418278 24,0" id="Oval-Copy"></path>
                        <path d="M24,0 C24,4.418278 27.581722,8 32,8 L32,8 C36.418278,8 40,4.418278 40,0" id="Oval-Copy-2"></path>
                    </g>
                </g>
            </g>
        </g>
    </g>
</svg>