<?xml version="1.0" encoding="UTF-8" standalone="no"?>
<svg width="17px" height="18px" viewBox="0 0 17 18" version="1.1" xmlns="http://www.w3.org/2000/svg" xmlns:xlink="http://www.w3.org/1999/xlink">
    <!-- Generator: Sketch 47.1 (45422) - http://www.bohemiancoding.com/sketch -->
    <title>dove</title>
    <desc>Created with Sketch.</desc>
    <defs></defs>
    <g id="Pages" stroke="none" stroke-width="1" fill="none" fill-rule="evenodd" opacity="0.900000036">
        <g id="1920---Главная" transform="translate(-885.000000, -3928.000000)" fill="#FFFFFF">
            <g id="request" transform="translate(0.000000, 3409.000000)">
                <g id="Button-send" transform="translate(869.000000, 510.000000)">
                    <path d="M32.8583972,18.3947384 C32.7391171,18.3535665 32.4185596,18.2222531 32.3307886,18.0943084 C32.3166003,18.0740967 32.2950415,18.0302424 32.2674633,17.9749099 C32.1054955,17.6493401 31.7261578,16.8868492 30.9600505,16.8868492 C30.8396034,16.8868492 30.7134441,16.9061252 30.5845823,16.9443651 C29.864541,17.1575856 29.5190464,17.64279 29.2666665,17.9970554 C29.1212824,18.2010434 29.0066089,18.3623623 28.8772557,18.3874397 C28.8367177,18.395487 28.7985751,18.399417 28.7639949,18.399417 C28.6407225,18.399417 28.5716236,18.3518822 28.5586637,18.2578107 C28.5099566,17.9052296 28.5211967,17.4651271 28.5329896,16.9994481 C28.5523987,16.2289724 28.5742647,15.3556293 28.322069,14.6703669 C27.9108537,13.5533612 26.992913,12.6534435 26.2553666,11.9304402 C26.0708571,11.7496582 25.8969122,11.5791068 25.7476585,11.4221546 C25.6903525,11.3502909 25.6305896,11.2847278 25.5729765,11.2213481 C25.4892593,11.1295223 25.410333,11.0427494 25.3525356,10.9513603 C25.1048851,10.5595412 24.9316771,10.1148224 24.7817478,9.6947444 C24.7675595,9.64889389 24.7534326,9.60235718 24.73949,9.55557095 C24.7169484,9.48052583 24.6924413,9.423509 24.6641261,9.38108948 C24.5825587,9.1825287 24.486373,9 24.3378564,9 C24.3148235,9 24.2910534,9.00461624 24.2673448,9.01366158 C24.0122624,9.11160077 23.9561233,9.64914342 23.9066792,10.1233687 C23.8812508,10.3667819 23.8572965,10.596783 23.8107392,10.7098809 C23.7503007,10.855854 23.6566947,10.9423773 23.5576222,11.0334545 C23.4405533,11.1416867 23.3193692,11.2532875 23.2627388,11.4640751 C23.2058627,11.6746131 23.2627388,11.7956959 23.3177108,11.912911 C23.3640224,12.0113492 23.4076315,12.1046722 23.3839229,12.2599401 C23.3589245,12.4229433 23.281718,12.5109015 23.1996592,12.6042244 C23.1125638,12.7036608 23.0220903,12.8064657 23.006735,12.9946088 C22.9906426,13.1888028 23.0914349,13.3148138 23.1886033,13.4368946 C23.2737946,13.5436296 23.3541336,13.6442512 23.3519839,13.7875419 C23.3503255,13.9091237 23.2795682,13.969821 23.1895861,14.0463009 C23.0720258,14.1467354 22.9256589,14.2717482 22.9736289,14.5724278 C23.0053223,14.7710509 23.134614,14.8746044 23.2486119,14.9661807 C23.3580032,15.0542012 23.4249523,15.1131519 23.4201615,15.2135239 C23.4165376,15.2898167 23.393259,15.3714743 23.3688133,15.4576857 C23.3104631,15.6636075 23.2440053,15.8970396 23.4155549,16.1531787 C23.4774675,16.245254 23.6833515,16.4302156 23.9117158,16.6195439 C23.2843591,16.3276602 22.3522301,15.9589222 21.3774134,15.8037167 C19.7787409,15.5488253 18.2280999,14.9192073 17.3951049,14.5807245 C17.003053,14.4213394 16.8267126,14.3509105 16.7571223,14.3509105 C16.7120391,14.3509105 16.6973594,14.3789199 16.6930599,14.3911467 C16.6765376,14.4376834 16.7160929,14.4815377 16.8116029,14.5619476 L17.0683438,14.7783496 C17.4126099,15.0682995 17.6827406,15.2959301 17.7977212,15.4102133 C17.7415207,15.3899392 17.6611817,15.3568146 17.5570727,15.3107769 C17.5021007,15.2866352 17.4579388,15.2961172 17.4334931,15.3324857 C17.4217003,15.3497655 17.4159881,15.3716614 17.4159881,15.3997332 C17.4159881,15.7082104 18.291241,17.2258311 19.4999499,18.690365 C20.3723774,19.746923 22.0486863,21.5199341 23.4721853,21.5199341 C23.5571309,21.5199341 23.640848,21.5135712 23.7222312,21.5011573 C23.1559886,22.0959663 21.0981309,23.6633052 19.2737354,24.4325956 C17.0690194,25.3620198 16.0738108,25.8396137 16.0042205,26.2127183 C15.9883739,26.297495 16.0171804,26.3766573 16.0901489,26.4480843 C16.1870716,26.543341 16.2775451,26.5874448 16.3747136,26.5874448 C16.4435668,26.5874448 16.5064007,26.5652994 16.5673306,26.5435906 C16.6297346,26.5216946 16.6942883,26.4988005 16.7674411,26.4988005 C16.8490085,26.4988005 16.9337084,26.5277456 17.0263316,26.5874448 C17.2573984,26.7361003 17.5349611,26.8947368 17.9056383,26.8947368 C18.2916709,26.8947368 18.7175659,26.7231873 19.2077689,26.3703567 C19.2996551,26.3042946 19.3828809,26.2748504 19.4778996,26.2748504 C19.5316432,26.2748504 19.5841584,26.2838334 19.6398675,26.2935649 C19.7005517,26.3038579 19.7632014,26.3147747 19.8327302,26.3147747 C19.9903986,26.3147747 20.1405735,26.2550754 20.3049368,26.1271307 C21.518498,25.182423 22.8419418,25.0055087 24.2430834,24.8181142 C25.8959294,24.5973456 27.6049144,24.3687792 29.4427612,22.9332527 C31.0068535,21.7114458 31.3156181,20.662436 31.5200895,19.9681907 C31.5414027,19.8950794 31.5617945,19.8261477 31.5821864,19.7617698 C31.786842,19.1174922 31.9067977,18.9669029 32.0567884,18.9145023 C32.1561066,18.8799429 32.402283,18.7788222 32.6194071,18.689866 C32.7719775,18.6272348 32.9039718,18.5731499 32.9406403,18.5602369 C32.9944453,18.54146 33.0008945,18.5078363 32.9999118,18.4895585 C32.9987448,18.4707816 32.996595,18.4269273 32.8583972,18.3947384 Z" id="dove"></path>
                </g>
            </g>
        </g>
    </g>
</svg>