<?xml version="1.0" encoding="UTF-8" standalone="no"?>
<svg width="72px" height="72px" viewBox="0 0 72 72" version="1.1" xmlns="http://www.w3.org/2000/svg" xmlns:xlink="http://www.w3.org/1999/xlink">
    <!-- Generator: Sketch 47.1 (45422) - http://www.bohemiancoding.com/sketch -->
    <title>Group 3 Copy</title>
    <desc>Created with Sketch.</desc>
    <defs></defs>
    <g id="Pages" stroke="none" stroke-width="1" fill="none" fill-rule="evenodd">
        <g id="1920---Главная" transform="translate(-1497.000000, -1194.000000)">
            <g id="adv-2" transform="translate(1300.000000, 1047.000000)">
                <g id="Group-3-Copy" transform="translate(232.729708, 182.729708) rotate(45.000000) translate(-232.729708, -182.729708) translate(198.729708, 149.229708)">
                    <circle id="Oval-2" stroke="#84C2F1" stroke-width="4" cx="34.5" cy="33.5" r="33.5"></circle>
                    <circle id="Oval-2" stroke="#84C2F1" stroke-width="4" cx="34.5" cy="33.5" r="17.5"></circle>
                    <rect id="Rectangle-4" fill="#84C2F1" x="37" y="1" width="4" height="16"></rect>
                    <rect id="Rectangle-4-Copy-4" fill="#84C2F1" x="37" y="51" width="4" height="16"></rect>
                    <rect id="Rectangle-4-Copy-6" fill="#84C2F1" transform="translate(60.000000, 29.000000) rotate(90.000000) translate(-60.000000, -29.000000) " x="58" y="21" width="4" height="16"></rect>
                    <rect id="Rectangle-4-Copy-8" fill="#84C2F1" transform="translate(9.000000, 27.500000) rotate(90.000000) translate(-9.000000, -27.500000) " x="7" y="19" width="4" height="17"></rect>
                    <rect id="Rectangle-4-Copy-7" fill="#84C2F1" transform="translate(60.000000, 39.000000) rotate(90.000000) translate(-60.000000, -39.000000) " x="58" y="31" width="4" height="16"></rect>
                    <rect id="Rectangle-4-Copy-9" fill="#84C2F1" transform="translate(8.000000, 38.000000) rotate(90.000000) translate(-8.000000, -38.000000) " x="6" y="30" width="4" height="16"></rect>
                    <rect id="Rectangle-4-Copy-3" fill="#84C2F1" x="26" y="0" width="4" height="16"></rect>
                    <rect id="Rectangle-4-Copy-5" fill="#84C2F1" x="26" y="50" width="4" height="16"></rect>
                </g>
            </g>
        </g>
    </g>
</svg>
