<?xml version="1.0" encoding="UTF-8" standalone="no"?>
<svg width="12px" height="12px" viewBox="0 0 12 12" version="1.1" xmlns="http://www.w3.org/2000/svg" xmlns:xlink="http://www.w3.org/1999/xlink">
    <!-- Generator: Sketch 47.1 (45422) - http://www.bohemiancoding.com/sketch -->
    <title>Fill 1</title>
    <desc>Created with Sketch.</desc>
    <defs></defs>
    <g id="Pages" stroke="none" stroke-width="1" fill="none" fill-rule="evenodd">
        <g id="1920---Главная" transform="translate(-1569.000000, -39.000000)" fill="#FFFFFF">
            <g id="first-display">
                <g id="Header" transform="translate(341.000000, 24.000000)">
                    <g id="button" transform="translate(1216.000000, 4.000000)">
                        <path d="M23.9943156,20.4703786 C24.0196396,20.6651846 23.9603513,20.8347797 23.8164246,20.9788006 L22.1268491,22.6567074 C22.0506175,22.741479 21.9511117,22.8135024 21.8283575,22.8728296 C21.7055255,22.9321567 21.5847952,22.9702975 21.4663223,22.9872258 C21.4578118,22.9872258 21.432358,22.9893549 21.3900129,22.9936129 C21.3477456,22.997871 21.2927125,23 21.2248877,23 C21.0640437,23 20.8035641,22.9724265 20.4436565,22.9173574 C20.0836452,22.8622883 19.6432508,22.7266797 19.1224992,22.5105575 C18.6016438,22.2944094 18.0109398,21.970278 17.3503092,21.5381375 C16.6897824,21.105971 15.9867808,20.5126476 15.2415378,19.7585047 C14.6487062,19.1736974 14.1575339,18.6143605 13.7679433,18.0804941 C13.3783266,17.5466017 13.0650454,17.052979 12.827866,16.5995482 C12.5907126,16.1461953 12.4128216,15.7351374 12.2943487,15.3664522 C12.175746,14.9978969 12.0952851,14.6800488 12.052914,14.4131156 C12.0105429,14.1461564 11.9936257,13.9364213 12.0021362,13.7838843 C12.0105429,13.6313473 12.0147982,13.5465757 12.0147982,13.5296214 C12.0317415,13.4109671 12.0698313,13.2902876 12.1291456,13.1673493 C12.188434,13.0444369 12.2603843,12.9449439 12.3451265,12.8686624 L14.0347019,11.1779814 C14.1532787,11.0593271 14.2887986,11 14.4412358,11 C14.551302,11 14.6487062,11.0317277 14.7333445,11.0953129 C14.8180607,11.1589241 14.890037,11.2373086 14.9493254,11.3305184 L16.3085985,13.9109768 C16.3848042,14.0465595 16.4060027,14.1949423 16.3721422,14.3559175 C16.3382816,14.5169706 16.2663313,14.6525532 16.1561613,14.7626914 L15.5337244,15.3855356 C15.5168071,15.4025678 15.5019136,15.4300634 15.4892516,15.4681782 C15.4765636,15.5063189 15.4701807,15.5381764 15.4701807,15.563517 C15.5040413,15.7415245 15.5802469,15.9448725 15.6988496,16.173665 C15.800509,16.3771169 15.9572015,16.6249927 16.1689271,16.9173964 C16.3806527,17.2096962 16.6812719,17.5466017 17.0708885,17.9279571 C17.4519687,18.3178027 17.7907037,18.6207476 18.0871714,18.8368698 C18.3835094,19.0529141 18.6312232,19.2118382 18.8302867,19.3135641 C19.0292465,19.4151862 19.1817875,19.4766424 19.2875985,19.4978288 L19.4463148,19.5295824 C19.463258,19.5295824 19.4908135,19.5231954 19.5289293,19.5105251 C19.5670451,19.4978288 19.5946006,19.4830294 19.6115438,19.4659972 L20.3356142,18.7287568 C20.4881552,18.5931741 20.6659165,18.5253049 20.8691316,18.5253049 C21.0131621,18.5253049 21.1274835,18.5507753 21.2121219,18.6015864 L21.2248877,18.6015864 L23.6766493,20.0507786 C23.8545404,20.1610206 23.9603513,20.3007835 23.9943156,20.4703786 Z" id="Fill-1"></path>
                    </g>
                </g>
            </g>
        </g>
    </g>
</svg>